
<?xml version="1.0" encoding="UTF-8" standalone="no"?>
<!-- Uploaded to: SVG Repo, www.svgrepo.com, Generator: SVG Repo Mixer Tools -->
<svg width="40px" height="40px" viewBox="-5 0 64 64" version="1.1" xmlns="http://www.w3.org/2000/svg" xmlns:xlink="http://www.w3.org/1999/xlink" xmlns:sketch="http://www.bohemiancoding.com/sketch/ns">
    
    <title>Add</title>
    <desc>Created with Sketch.</desc>
    <defs>

</defs>
    <g id="Page-1" stroke="none" stroke-width="1" fill="none" fill-rule="evenodd" sketch:type="MSPage">
        <g id="Document-add" sketch:type="MSLayerGroup" transform="translate(1.000000, 1.000000)" stroke="#6B6C6E" stroke-width="4">
            <path d="M47,57.9 L47,60 C47,61.1 46.1,62 45,62 L2,62 C0.9,62 0,61.1 0,60 L0,2 C0,0.9 0.9,0 2,0 L27.9,0 L47,18.1 L47,42" id="Shape" sketch:type="MSShapeGroup">

</path>
            <path d="M9,17 L22,17" id="Shape" sketch:type="MSShapeGroup">

</path>
            <path d="M9,27 L41,27" id="Shape" sketch:type="MSShapeGroup">

</path>
            <path d="M9,34 L41,34" id="Shape" sketch:type="MSShapeGroup">

</path>
            <path d="M9,43 L35,43" id="Shape" sketch:type="MSShapeGroup">

</path>
            <path d="M9,49 L28,49" id="Shape" sketch:type="MSShapeGroup">

</path>
            <path d="M47,57.9 L47,52.9 L52,52.9 L52,47 L47.1,47 L47.1,42 L41.1,42 L41.1,47 L36,47 L36,52.9 L41,52.9 L41,57.9 L47,57.9 Z" id="Shape" sketch:type="MSShapeGroup">

</path>
            <path d="M47,18.9 L30,18.9 C28.9,18.9 28,18 28,16.9 L28,1" id="Shape" sketch:type="MSShapeGroup">

</path>
        </g>
    </g>
</svg>