<?xml version="1.0" encoding="utf-8"?>

<!DOCTYPE svg PUBLIC "-//W3C//DTD SVG 1.1//EN" "http://www.w3.org/Graphics/SVG/1.1/DTD/svg11.dtd">
<!-- Uploaded to: SVG Repo, www.svgrepo.com, Generator: SVG Repo Mixer Tools -->
<svg version="1.1" id="Layer_1" xmlns:sketch="http://www.bohemiancoding.com/sketch/ns"
	 xmlns="http://www.w3.org/2000/svg" xmlns:xlink="http://www.w3.org/1999/xlink"  width="40px" height="40px"
	 viewBox="0 0 59 64" enable-background="new 0 0 59 64" xml:space="preserve">
<title>Edit</title>
<desc>Created with Sketch.</desc>
<g id="Page-1" sketch:type="MSPage">
	<g id="Document-edit" transform="translate(1.000000, 1.000000)" sketch:type="MSLayerGroup">
		<path id="Shape_1_" sketch:type="MSShapeGroup" fill="none" stroke="#6B6C6E" stroke-width="4" d="M47,45v15c0,1.1-0.9,2-2,2H2
			c-1.1,0-2-0.9-2-2V2c0-1.1,0.9-2,2-2h25.9L47,18.1V33"/>
		<path id="Shape" sketch:type="MSShapeGroup" fill="none" stroke="#6B6C6E" stroke-width="2" d="M47,18.9H30c-1.1,0-2-0.9-2-2V1"/>
		<path id="Shape_2_" sketch:type="MSShapeGroup" fill="none" stroke="#6B6C6E" stroke-width="2" d="M9,17h13"/>
		<path id="Shape_3_" sketch:type="MSShapeGroup" fill="none" stroke="#6B6C6E" stroke-width="2" d="M9,27h31"/>
		<path id="Shape_4_" sketch:type="MSShapeGroup" fill="none" stroke="#6B6C6E" stroke-width="2" d="M9,34h31"/>
		<path id="Shape_5_" sketch:type="MSShapeGroup" fill="none" stroke="#6B6C6E" stroke-width="2" d="M9,43h24"/>
		<path id="Shape_6_" sketch:type="MSShapeGroup" fill="none" stroke="#6B6C6E" stroke-width="2" d="M9,49h17"/>
		<g id="Group" transform="translate(27.000000, 29.000000)" sketch:type="MSShapeGroup">
			<path id="Shape_8_" fill="none" stroke="#6B6C6E" stroke-width="4" stroke-linejoin="round" d="M0,30l3.9-9.4L24.2,0.3
				c0.4-0.4,1.1-0.4,1.6,0l3.9,3.9c0.4,0.4,0.4,1.1,0,1.6L9.4,26.1L0,30z"/>
			<path id="Shape_9_" fill="none" stroke="#6B6C6E" stroke-width="2" d="M21.9,2.7l5.4,5.4"/>
		</g>
	</g>
</g>
</svg>