<svg xmlns="http://www.w3.org/2000/svg" width="1920" height="1080" viewBox="0 0 1920 1080">
  <g id="Group_2141" data-name="Group 2141" transform="translate(-261 -4587)">
    <rect id="Rectangle_2186" data-name="Rectangle 2186" width="1920" height="1080" transform="translate(261 4587)" fill="#fff" opacity="0"/>
    <g id="Group_2140" data-name="Group 2140" transform="translate(-1355 1014)">
      <g id="Group_2030" data-name="Group 2030" transform="translate(2061.773 3746)">
        <g id="dog-cat-logo-template-veterinary_56473-122" transform="translate(0 0)">
          <path id="Path_876" data-name="Path 876" d="M164.253-238.721c-59.384,20.443-91.267,80.8-78.124,146.514C91-69.087,103.9-39.394,119.228-17c19.227,28.476,66.686,74.473,73.987,71.8,5.841-2.19,14.116-25.8,15.333-43.808,2.19-28.718-6.815-40.887-38.21-52.083-29.205-9.979-39.184-19.957-42.835-43.078-1.46-9.249-1.217-9.249,11.439-16.55,7.3-4.137,15.333-11.2,18.5-15.82,9-14.6,15.089-18.983,29.692-21.9,32.613-6.571,37.967-10.708,37.967-30.666,0-15.576,2.19-16.306,21.174-6.815,12.9,6.572,38.454,28.962,38.454,33.587,0,1.46-5.354,5.111-11.682,8.031-39.428,18.253-60.115,63.278-43.565,95.648C239.214-18.951,261.6-10.919,280.1-20.411c23.121-12.169,38.454-64.738,28.719-99.542-1.947-7.545-1.947-9.978.73-11.682,3.894-2.677,23.608-.73,42.1,4.138,16.55,4.137,24.338,2.92,45.268-7.545l16.063-8.032,6.085,7.3c5.111,5.6,8.518,7.058,16.063,7.058,9.492,0,9.735.243,12.412,10.708,1.46,6.085,2.677,13.63,2.677,16.794,0,14.846-21.417,27.5-41.618,24.824-9.005-1.217-11.682-.73-12.656,2.191C394.49-70.3,402.278-63,408.119-63c4.381,0,4.137.973-4.381,12.9C394-36.23,392.542-23.332,397.9.52c4.381,18.5,4.381,19.471,0,29.206-6.571,14.36-34.073,35.046-83.479,62.792l-22.634,12.656-16.306-9.249c-13.386-7.3-45.269-26.285-48.919-29.205-.487-.244,6.815-7.789,16.306-16.55,17.767-16.55,33.586-39.914,31.153-46.242-2.19-6.084-8.762-4.138-13.143,3.894C252.6,22.911,238,39.7,223.151,50.412c-8.275,6.328-15.089,12.9-15.089,15.333,0,2.361,7.213,8.386,18.751,16.161a441.14,441.14,0,0,0,42.824,24.97l22.391,11.439L313.2,107.363C446.816,37.757,519.1-64.462,496.709-152.809c-6.085-24.581-13.629-38.211-31.639-56.951-19.957-20.931-42.591-31.153-72.04-32.856-16.063-.73-25.8,0-35.777,2.92-7.545,2.19-16.793,3.894-20.687,3.894-9.735,0-26.042,9.979-27.015,16.306-1.217,8.275,3.651,15.333,10.709,15.333,8.762,0,25.555-9.248,27.015-14.846,1.947-7.3,24.338-12.656,46.242-11.439,45.755,2.92,84.7,40.158,93.457,89.564,5.354,30.422-3.407,69.363-22.878,101.489-10.465,17.766-43.808,59.141-47.459,59.141-.974,0-3.894-9.248-6.084-20.687-6.815-32.37-4.138-37.968,39.427-76.908,11.439-10.222,12.412-11.926,12.412-21.9,0-17.279-10.952-51.839-17.767-56.22-7.788-4.867-27.5-1.7-47.946,7.788-23.121,10.709-28.962,11.439-52.813,5.841-9.979-2.434-21.9-3.408-30.179-2.677L300.3-143.8l-9.979-12.656c-11.682-15.09-35.29-31.64-52.57-36.75-24.094-7.058-29.692-4.138-25.555,13.872,4.137,17.524-.243,22.391-24.825,27.745-21.9,4.624-28.962,9.005-36.507,22.391-3.164,5.355-11.2,12.9-20.2,18.74-13.142,8.518-15.09,10.952-15.82,18.01-1.947,19.227,10.952,43.565,27.5,53.057,5.354,3.164,16.306,7.788,24.581,10.465,19.47,6.571,28.232,15.576,29.449,30.91,1.217,12.656-3.651,32.613-8.275,34.072-4.868,1.7-45.025-40.644-60.115-63.278-25.8-38.94-36.507-77.394-30.909-111.467,6.815-42.835,32.613-74.474,70.336-87.129,25.312-8.518,60.115-5.355,67.659,6.084,4.868,7.058,18.983,15.576,26.528,15.576,9.979,0,15.576-8.518,11.926-18.253-1.947-4.867-18.5-13.386-26.285-13.386-3.408,0-12.412-1.7-20.2-3.651C208.3-244.319,179.586-244.076,164.253-238.721Zm134.1,128.747c2.921,19.47-.243,41.131-8.275,57.437C277.911-27.955,262.578-22.6,246.272-37.2c-8.762-8.031-9.005-9.005-9.005-25.068,0-26.771,14.6-48.189,40.888-60.6,11.439-5.354,12.9-5.354,15.576-1.947C295.434-122.63,297.381-115.815,298.355-109.974Z" transform="translate(-83.194 242.929)" fill="#568d2c"/>
        </g>
        <ellipse id="Ellipse_159" data-name="Ellipse 159" cx="11.56" cy="5.78" rx="11.56" ry="5.78" transform="translate(83.958 127.162)" fill="#568d2c"/>
        <path id="Path_877" data-name="Path 877" d="M.317,8.626S-1.916,2.713,2.716.011s9.77,1.314,9.77,1.314" transform="translate(251.58 137.309)" fill="#568d2c"/>
      </g>
      <text id="Dr._Reed" data-name="Dr. Reed" transform="translate(1718 4345.962)" font-size="451" font-family="ProximaNova-Bold, Proxima Nova" font-weight="700"><tspan x="0" y="0">Dr. Reed</tspan></text>
    </g>
  </g>
</svg>
